<svg xmlns="http://www.w3.org/2000/svg" viewBox="0 0 744.66 594.92">
  <defs>
    <style>
      .cls-3{fill:none;stroke-linecap:round;stroke-miterlimit:10;stroke:#1f161e}.cls-2{fill:#d1a19a}.cls-4{fill:#fbdc8e}.cls-5{fill:#969696}.cls-6{fill:#ab8de5}.cls-7{fill:#1fefa1}.cls-8{fill:#d8d8d8}.cls-10{fill:#fff}.cls-14{fill:#418baa}.cls-16{fill:#f1bc9f}.cls-17{fill:#fa9e9f}
    </style>
  </defs>
  <g id="Layer_2" data-name="Layer 2">
    <g id="Layer_2-2" data-name="Layer 2">
      <ellipse cx="332.04" cy="476.96" rx="63.11" ry="13.95"/>
      <path d="m332.04 476.96-35.45 110.95m35.45-110.95 35.45 110.95" style="stroke-width:4px;stroke-miterlimit:10;stroke:#000;fill:none;stroke-linecap:round"/>
      <path d="m308.23 551.48 39.52-25.34m-31.58 0 39.53 25.34" style="stroke-width:2px;stroke-miterlimit:10;stroke:#000;fill:none;stroke-linecap:round"/>
      <path class="cls-3" d="M394.15 356.86c-.16 4.92-.09 22.15-.9 29.52"/>
      <rect x="178.46" y="132.63" width="12.66" height="34.51" rx="6.33" ry="6.33"/>
      <circle class="cls-4" cx="184.79" cy="191.17" r="12.7"/>
      <path class="cls-4" d="M609.37 342h6a2.39 2.39 0 0 0 2.38-2.38v-36.88a2.35 2.35 0 0 0-.7-1.68l-7.58-7.58a2.37 2.37 0 0 0-1.68-.7H585.4a2.39 2.39 0 0 0-2.38 2.38v3.56"/>
      <path d="M88.06 430c19 3.6 15.61 117-20.86 110.14C32.76 533.6 64.88 425.59 88.06 430Z"/>
      <path class="cls-4" d="M4.64 444c15.12-8.56 78.41 71.08 49.46 87.46C26.75 547-13.77 454.44 4.64 444Z"/>
      <path class="cls-5" d="M81.69 594.92H43.51a6.25 6.25 0 0 1-6.21-5.56l-4.82-43.28a6.26 6.26 0 0 1 6.21-7h47.62a6.25 6.25 0 0 1 6.21 6.92l-4.61 43.28a6.26 6.26 0 0 1-6.22 5.64Z"/>
      <path class="cls-6" d="M98.79 385.84c14.47 4.2 3.38 91.73-24.33 83.67-26.16-7.6 6.72-88.79 24.33-83.67Z"/>
      <path class="cls-4" d="M122.65 455.48c10 8.62-30.68 74.56-49.9 58-18.15-15.57 37.69-68.48 49.9-58Z"/>
      <path class="cls-7" d="M62.7 394.94c21.66 0 41.49 138.3 0 138.3-39.18 0-26.37-138.3 0-138.3Z"/>
      <rect class="cls-8" x="20.46" y="529.72" width="84.3" height="15.48" rx="4.05" ry="4.05"/>
      <path class="cls-8" d="M599.29 298.72h-22a2.68 2.68 0 0 0-2.68 2.69v43.8a2.69 2.69 0 0 0 2.68 2.69h29.39a2.69 2.69 0 0 0 2.68-2.69v-36.4a2.68 2.68 0 0 0-.78-1.9l-7.4-7.4a2.68 2.68 0 0 0-1.89-.79Z"/>
      <path class="cls-5" d="M609.37 307.76h-7.47a1.5 1.5 0 0 1-1.5-1.5v-7.54"/>
      <path d="M617.78 301.83h-7.47a1.52 1.52 0 0 1-1.51-1.51v-7.54" style="fill:#64ccc4"/>
      <rect class="cls-7" x="520.05" y="248.65" width="57.62" height="22.9" rx="3.03" ry="3.03"/>
      <path class="cls-7" d="m548.85 287.25 6.94-21.02h-13.88l6.94 21.02z"/>
      <path class="cls-10" d="m535.1 254.75-5.82 10.07h11.63l-5.81-10.07zm27.51 10.07 5.82-10.07h-11.64l5.82 10.07z"/>
      <circle class="cls-10" cx="548.85" cy="259.79" r="4.37"/>
      <rect class="cls-8" x="507.87" y="200.12" width="39.14" height="25.76" rx="2.65" ry="2.65"/>
      <path d="M509.1 200.93 527.44 213m19.57-12.88L527.44 213" style="stroke:#969696;stroke-width:.82px;stroke-linejoin:round;fill:none;stroke-linecap:round"/>
      <circle class="cls-4" cx="547.01" cy="200.12" r="5.6"/>
      <text transform="translate(545.39 202.28)" style="font-size:7.3px;font-family:SofiaPro-Bold,Sofia Pro;font-weight:700;fill:#fff">1</text>
      <rect class="cls-8" x="596.2" y="215.83" width="148.46" height="3.22" rx="1.23" ry="1.23"/>
      <rect class="cls-5" x="647.67" y="151.89" width="13.99" height="63.94" rx="2.56" ry="2.56"/>
      <rect class="cls-8" x="661.66" y="166.88" width="7" height="48.95" rx="2.13" ry="2.13"/>
      <rect class="cls-5" x="668.66" y="166.88" width="7" height="48.95" rx="2.06" ry="2.06"/>
      <rect class="cls-8" x="684.21" y="168.74" width="7" height="48.95" rx="2.2" ry="2.2" transform="rotate(-24.66 687.602 193.2)"/>
      <circle class="cls-8" cx="654.66" cy="195.74" r="3.91"/>
      <rect class="cls-8" x="650.18" y="201.99" width="8.96" height="1.88" rx=".94" ry=".94"/>
      <rect class="cls-8" x="650.18" y="206.8" width="8.96" height="1.88" rx=".94" ry=".94"/>
      <rect class="cls-5" x="578.54" y="303.24" width="8.96" height="1.88" rx=".94" ry=".94"/>
      <rect class="cls-5" x="578.54" y="307.76" width="8.96" height="1.88" rx=".94" ry=".94"/>
      <rect class="cls-5" x="578.13" y="315.49" width="27.73" height="1.88" rx=".94" ry=".94"/>
      <rect class="cls-5" x="578.13" y="319.93" width="27.73" height="1.88" rx=".94" ry=".94"/>
      <rect class="cls-5" x="578.13" y="324.37" width="27.73" height="1.88" rx=".94" ry=".94"/>
      <rect class="cls-5" x="664.43" y="173.54" width="1.46" height="35.62" rx=".73" ry=".73"/>
      <rect class="cls-8" x="626.43" y="217.44" width="11.24" height="4.98" rx="2.49" ry="2.49"/>
      <rect class="cls-8" x="703.19" y="217.44" width="11.24" height="4.98" rx="2.49" ry="2.49"/>
      <rect class="cls-8" x="427.14" y="222.31" width="60.51" height="41.81" rx="12" ry="12"/>
      <path class="cls-6" d="M439.66 229.04h9.1v28.35h-9.1zm13.19 18.86h9.1v9.5h-9.1zm13.18-8h9.1v17.49h-9.1z"/>
      <path class="cls-1" d="M485.19 574.68c0 2.37-1.39 17.32 1.38 18.7s33.22 2.22 34.6.83 2.21-4.29 1-5.12-13-3.18-14.6-4.29-3.81-7-3-10.12"/>
      <path class="cls-7" d="m394.15 379.25 17.14-6.15c-.74-31.27-8.05-101.14-18.43-111.53-2.44-2.43-50.7-6.67-59.31-6.67-51.38 0-66.62 5.86-70.49 9.74-12 12-15.74 67.6-15.74 87.07s55 29.57 55 29.57l64.47 4.43s14.14 1.46 26.37 2.18c.27-3.75.99-8.64.99-8.64Z"/>
      <path class="cls-14" d="M445.22 397.38c4.69-1.39 51.33-9 61.49 1s42.14 153.37 42.14 156.67H523.1l-34.76-74.81"/>
      <path d="M275.41 384.63c-1.17 5.85-8.2 12.13-8.2 44 0 44.07 36.1 45 49.06 45 40.38 0 105.71-12 110.12-14.2 2.93 4.9 56.86 115 57.11 117.46h24.83s-15.39-164.72-43.16-183.4c-9.02-6-169.05-12.42-189.76-8.86Z" style="fill:#588faf"/>
      <path class="cls-16" d="M420.81 352.41c-6.52 0-11.9 1.55-26.66 4.45l-.77 28.24c14-5.64 17.25-13.48 21.31-13.48 10.14 0 15.44 5.23 21.43 5.23 4.18 0 11.7-3.28 11.7-7.74 0-9.34-18.93-16.7-27.01-16.7Z"/>
      <path class="cls-1" d="M524.56 553.07c0 2.38-1.39 17.32 1.38 18.71s33.22 2.21 34.6.83 2.21-4.29 1-5.12-13-3.19-14.6-4.3-3.81-7-3-10.12"/>
      <path class="cls-16" d="M342.64 261.55c0 3.77-21.89 3.88-21.89 0v-30.66h21.89Z"/>
      <path class="cls-2" d="M335.51 241c-2 0-14.76 5.64-14.76 8.79v-16.64c3.18 0 14.76 7.85 14.76 7.85Z"/>
      <circle class="cls-16" cx="339.74" cy="215.8" r="26.5"/>
      <path class="cls-2" d="M367.09 195c-3.28 5.21-10.14 7.6-17.57 7.6-6.33 0-15.55-1.84-22.11 1.9-3.55 2-7.62 6.55-8.44 15.66 0 1.56-1.77 7.61-1.77 9.56 0 1.33-1.5 2.2-4 2.2-1.29 0-3.84-2.09-3.84-5.28 0-3.69 1.47-5 1.47-8.13s-3.83-6.14-3.83-14.84c0-12.53 8-20.25 13.66-20.25 5.16 0 6.78 1.2 7.43 1.71 0-11.39 15-16.59 20.95-16.59 6.8 0 10 2.79 10 6.34 0 5.66-2.7 10.47-4.07 11.55a16.8 16.8 0 0 1 11.3-4.31c7.79 0 10.41 5.12 10.41 8.62 0 7.61-9.13 14.66-12.53 14.66a36.33 36.33 0 0 0-3-5.19"/>
      <circle class="cls-16" cx="319.79" cy="219.3" r="5.65"/>
      <ellipse class="cls-17" cx="366.5" cy="218.38" rx="4.38" ry="2.28"/>
      <ellipse class="cls-17" cx="338.95" cy="218.38" rx="4.38" ry="2.28"/>
      <path class="cls-3" d="M355.8 213.65c.82 1.17 5 6.08.59 8.07m-8.83 5.73c-1.32 0-3.35-1.64-4.42-3.11m39.36 74.28c2 4.25 11.65 45.25 11.65 58.24"/>
      <path class="cls-16" d="M247.32 348.41c0 46.09.43 59.46 18.93 59.46 42.64 0 107.1-35 118.59-35 10.15 0 15.45 5.24 21.44 5.24 4.17 0 11.69-3.29 11.69-7.74 0-9.35-18.93-16.71-27-16.71-18.17 0-90.68 17.52-92.45 17.52s-4.75-.77-4.75-3.75c0-5.41 3.54-17.91 4-19Z"/>
      <path class="cls-3" d="M308.42 308.21c-1.22 3.51-10.73 39.78-11.83 44.2"/>
      <rect class="cls-5" x="643.68" y="384.29" width="10.24" height="211.6" rx="5.12" ry="5.12" transform="rotate(165.27 648.806 490.083)"/>
      <rect class="cls-5" x="582.06" y="384.29" width="10.24" height="211.6" rx="5.12" ry="5.12" transform="rotate(14.73 587.22 490.162)"/>
      <rect class="cls-8" x="511.42" y="384.29" width="10.24" height="211.6" rx="5.12" ry="5.12" transform="rotate(14.73 516.581 490.13)"/>
      <rect class="cls-8" x="572.16" y="384.29" width="10.24" height="211.6" rx="5.12" ry="5.12" transform="rotate(166 577.744 488.18)"/>
      <rect class="cls-5" x="223" y="384.29" width="10.24" height="211.6" rx="5.12" ry="5.12" transform="rotate(14.73 228.141 490.128)"/>
      <rect class="cls-5" x="283.75" y="384.29" width="10.24" height="211.6" rx="5.12" ry="5.12" transform="rotate(165.27 288.87 490.088)"/>
      <rect class="cls-8" x="149.57" y="378.14" width="504.23" height="15.15" rx="4.53" ry="4.53"/>
      <rect class="cls-8" x="149.82" y="384.29" width="10.24" height="211.6" rx="5.12" ry="5.12" transform="rotate(14.73 154.952 490.15)"/>
      <rect class="cls-8" x="210.56" y="384.29" width="10.24" height="211.6" rx="5.12" ry="5.12" transform="rotate(165.27 215.688 490.09)"/>
      <path d="M520.28 378.14h-92.51l16.76-57.64a6.73 6.73 0 0 1 6.48-4.79h78.5a6.62 6.62 0 0 1 6.48 8.41Z"/>
      <circle class="cls-10" cx="485.38" cy="346.92" r="5.66"/>
      <path d="M373.85 374.09h64.91v4.05h-64.91z"/>
    </g>
  </g>
</svg>
